<svg xmlns="http://www.w3.org/2000/svg" width="384" height="96" viewBox="0 0 384 96">
  <rect width="384" height="96" fill="none"/>

  <!-- Row 1: day/action frames -->
  <g transform="translate(0,0)">
    <rect x="14" y="24" width="20" height="14" fill="#111"/>
    <rect x="10" y="20" width="6" height="8" fill="#111"/>
    <rect x="32" y="20" width="6" height="8" fill="#111"/>
    <rect x="16" y="27" width="3" height="3" fill="#f4df69"/>
    <rect x="27" y="27" width="3" height="3" fill="#f4df69"/>
    <rect x="16" y="38" width="16" height="8" fill="#111"/>
    <rect x="31" y="41" width="10" height="3" fill="#111"/>
  </g>
  <g transform="translate(48,0)">
    <rect x="14" y="23" width="20" height="14" fill="#111"/>
    <rect x="10" y="19" width="6" height="8" fill="#111"/>
    <rect x="32" y="19" width="6" height="8" fill="#111"/>
    <rect x="16" y="26" width="3" height="3" fill="#f4df69"/>
    <rect x="27" y="26" width="3" height="3" fill="#f4df69"/>
    <rect x="16" y="37" width="16" height="8" fill="#111"/>
    <rect x="30" y="40" width="11" height="3" fill="#111"/>
  </g>
  <g transform="translate(96,0)">
    <rect x="14" y="24" width="20" height="14" fill="#111"/>
    <rect x="10" y="20" width="6" height="8" fill="#111"/>
    <rect x="32" y="20" width="6" height="8" fill="#111"/>
    <rect x="16" y="27" width="3" height="3" fill="#f4df69"/>
    <rect x="27" y="27" width="3" height="3" fill="#f4df69"/>
    <rect x="15" y="38" width="18" height="8" fill="#111"/>
    <rect x="30" y="39" width="12" height="3" fill="#111"/>
  </g>
  <g transform="translate(144,0)">
    <rect x="14" y="24" width="20" height="14" fill="#111"/>
    <rect x="10" y="20" width="6" height="8" fill="#111"/>
    <rect x="32" y="20" width="6" height="8" fill="#111"/>
    <rect x="16" y="27" width="3" height="3" fill="#f4df69"/>
    <rect x="27" y="27" width="3" height="3" fill="#f4df69"/>
    <rect x="16" y="38" width="16" height="8" fill="#111"/>
    <rect x="29" y="42" width="12" height="3" fill="#111"/>
  </g>
  <g transform="translate(192,0)">
    <rect x="14" y="25" width="20" height="14" fill="#111"/>
    <rect x="10" y="21" width="6" height="8" fill="#111"/>
    <rect x="32" y="21" width="6" height="8" fill="#111"/>
    <rect x="16" y="28" width="3" height="3" fill="#f4df69"/>
    <rect x="27" y="28" width="3" height="3" fill="#f4df69"/>
    <rect x="16" y="39" width="16" height="7" fill="#111"/>
    <rect x="30" y="42" width="10" height="3" fill="#111"/>
  </g>
  <g transform="translate(240,0)">
    <rect x="14" y="24" width="20" height="14" fill="#111"/>
    <rect x="10" y="20" width="6" height="8" fill="#111"/>
    <rect x="32" y="20" width="6" height="8" fill="#111"/>
    <rect x="16" y="27" width="3" height="3" fill="#f4df69"/>
    <rect x="27" y="27" width="3" height="3" fill="#f4df69"/>
    <rect x="16" y="38" width="16" height="8" fill="#111"/>
    <rect x="29" y="41" width="12" height="3" fill="#111"/>
  </g>
  <g transform="translate(288,0)">
    <rect x="14" y="24" width="20" height="14" fill="#111"/>
    <rect x="10" y="20" width="6" height="8" fill="#111"/>
    <rect x="32" y="20" width="6" height="8" fill="#111"/>
    <rect x="16" y="28" width="3" height="2" fill="#d8c96b"/>
    <rect x="27" y="28" width="3" height="2" fill="#d8c96b"/>
    <rect x="16" y="38" width="16" height="8" fill="#111"/>
    <rect x="30" y="41" width="10" height="3" fill="#111"/>
  </g>
  <g transform="translate(336,0)">
    <rect x="14" y="24" width="20" height="14" fill="#111"/>
    <rect x="10" y="20" width="6" height="8" fill="#111"/>
    <rect x="32" y="20" width="6" height="8" fill="#111"/>
    <rect x="16" y="28" width="3" height="2" fill="#d8c96b"/>
    <rect x="27" y="28" width="3" height="2" fill="#d8c96b"/>
    <rect x="16" y="38" width="16" height="8" fill="#111"/>
    <rect x="29" y="42" width="12" height="3" fill="#111"/>
  </g>

  <!-- Row 2: sleep frames -->
  <g transform="translate(0,48)">
    <rect x="12" y="30" width="24" height="10" fill="#111"/>
    <rect x="10" y="26" width="8" height="6" fill="#111"/>
    <rect x="30" y="26" width="8" height="6" fill="#111"/>
    <rect x="16" y="29" width="3" height="2" fill="#c5bd63"/>
    <rect x="27" y="29" width="3" height="2" fill="#c5bd63"/>
    <rect x="27" y="37" width="12" height="3" fill="#111"/>
  </g>
  <g transform="translate(48,48)">
    <rect x="11" y="31" width="24" height="10" fill="#111"/>
    <rect x="9" y="27" width="8" height="6" fill="#111"/>
    <rect x="29" y="27" width="8" height="6" fill="#111"/>
    <rect x="16" y="30" width="3" height="2" fill="#c5bd63"/>
    <rect x="27" y="30" width="3" height="2" fill="#c5bd63"/>
    <rect x="28" y="38" width="11" height="3" fill="#111"/>
  </g>
</svg>
